<svg width="30" height="30" viewBox="0 0 30 30" fill="none" xmlns="http://www.w3.org/2000/svg">
<path d="M2.0531 0.234375L4.40974 26.6913L14.9843 29.6398L25.5883 26.6805L27.9468 0.234375H2.0531ZM23.051 6.29578L22.2665 15.1095L22.2689 15.157L22.2656 15.2665V15.2655L21.7083 21.4282L21.6469 21.9757L15 23.8141V23.8144L14.9948 23.8188L8.35943 21.9701L7.91013 16.875H11.164L11.3948 19.4658L15.0009 20.4431L15 20.445V20.4445L18.6194 19.4534L19.0019 15.2344H11.4356L11.3707 14.5212L11.2228 12.8503L11.1452 11.9531H19.2895L19.5858 8.67188H7.18123L7.1163 7.95914L6.96865 6.28781L6.89083 5.39062H23.1286L23.051 6.29578Z" fill="#ECE2D0"/>
</svg>
