<svg viewBox="0 0 1920 980" fill="none" xmlns="http://www.w3.org/2000/svg">
<g clip-path="url(#clip0_2_49)">
<path d="M-100.37 691.26C78.11 683.03 288.76 373.82 541.84 377.66C794.93 381.5 717.48 904.28 862.95 1002.82" stroke="#101D42" stroke-width="2"/>
<path d="M-40.47 507.14C164.5 526.56 275.68 946.65 648.75 957.94C1021.83 969.23 1162.97 1080.11 1337.98 1080.59" stroke="#101D42" stroke-width="2"/>
<path d="M-275.97 632.47C-132.42 628.98 -39.68 411.63 260.27 426.67C560.21 441.71 584.34 1085.12 796.5 1173.63" stroke="#101D42" stroke-width="2"/>
<path d="M-6.67996 301.86C186.2 312.89 293.97 645.28 675.75 664.46C1057.52 683.64 1169.21 982.84 1358.17 991.11" stroke="#101D42" stroke-width="2"/>
<path d="M-44.66 454.49C163.6 469.56 287.4 864.83 676.47 875.89C1065.54 886.95 1212.66 1039.78 1397.6 1040.83" stroke="#101D42" stroke-width="2"/>
</g>
<defs>
<clipPath id="clip0_2_49">
<rect width="1920" height="980" fill="white"/>
</clipPath>
</defs>
</svg>
