<svg viewBox="0 0 800 800" fill="none" xmlns="http://www.w3.org/2000/svg">
<g clip-path="url(#clip0_17_100)">
<path opacity="0.05" d="M550.202 92.4993C567.115 92.5006 582.745 101.524 591.201 116.173L741.403 376.33C749.861 390.976 749.86 409.024 741.404 423.671L591.202 683.828C582.745 698.476 567.116 707.5 550.202 707.501L249.798 707.501C232.885 707.499 217.256 698.476 208.799 683.827L58.597 423.67C50.1393 409.023 50.1398 390.976 58.5964 376.328L208.798 116.171C217.255 101.524 232.884 92.4998 249.799 92.4991L550.202 92.4993Z" stroke="url(#paint0_linear_17_100)" stroke-width="5"/>
<path opacity="0.12" d="M530.087 108.282C545.863 107.732 560.735 115.64 569.101 129.028L717.678 366.801C726.044 380.187 726.631 397.022 719.22 410.959L587.592 658.517C580.181 672.455 565.896 681.382 550.119 681.933L269.913 691.718C254.137 692.268 239.265 684.36 230.9 670.972L82.3222 433.199C73.9561 419.813 73.3688 402.978 80.7797 389.04L212.408 141.483C219.819 127.545 234.104 118.618 249.881 118.066L530.087 108.282Z" stroke="url(#paint1_linear_17_100)" stroke-width="5"/>
<path opacity="0.19" d="M511.268 125.068C525.89 124.047 539.948 130.903 548.145 143.056L693.731 358.896C701.929 371.048 703.019 386.651 696.594 399.826L582.464 633.826C576.038 647.001 563.071 655.748 548.448 656.771L288.732 674.932C274.11 675.953 260.052 669.097 251.855 656.944L106.269 441.104C98.0715 428.952 96.9808 413.349 103.407 400.174L217.536 166.174C223.962 152.999 236.929 144.252 251.552 143.229L511.268 125.068Z" stroke="url(#paint2_linear_17_100)" stroke-width="5"/>
<path opacity="0.25" d="M493.789 142.787C507.246 141.373 520.435 147.246 528.388 158.193L669.647 352.618C677.601 363.564 679.11 377.923 673.606 390.284L575.858 609.83C570.355 622.191 558.674 630.678 545.217 632.093L306.21 657.213C292.754 658.626 279.565 652.754 271.612 641.806L130.353 447.381C122.399 436.435 120.89 422.076 126.394 409.715L224.142 190.17C229.645 177.809 241.326 169.322 254.783 167.907L493.789 142.787Z" stroke="url(#paint3_linear_17_100)" stroke-width="5"/>
<path opacity="0.32" d="M477.693 161.364C489.975 159.639 502.246 164.597 509.882 174.371L645.51 347.967C653.147 357.74 654.988 370.846 650.342 382.346L567.818 586.601C563.172 598.101 552.742 606.249 540.459 607.976L322.307 638.635C310.025 640.361 297.754 635.403 290.118 625.628L154.49 452.033C146.853 442.26 145.012 429.153 149.658 417.653L232.182 213.399C236.828 201.899 247.258 193.75 259.541 192.023L477.693 161.364Z" stroke="url(#paint4_linear_17_100)" stroke-width="5"/>
<path opacity="0.39" d="M463.016 180.726C474.12 178.769 485.426 182.884 492.673 191.522L621.404 344.937C628.652 353.574 630.741 365.423 626.885 376.018L558.389 564.21C554.533 574.805 545.316 582.539 534.211 584.498L336.984 619.274C325.88 621.231 314.574 617.116 307.327 608.478L178.596 455.063C171.348 446.426 169.259 434.577 173.115 423.981L241.611 235.79C245.467 225.195 254.684 217.46 265.789 215.502L463.016 180.726Z" stroke="url(#paint5_linear_17_100)" stroke-width="5"/>
<path opacity="0.46" d="M449.792 200.794C459.718 198.685 470.017 202.031 476.807 209.573L597.413 343.519C604.204 351.06 606.455 361.652 603.319 371.303L547.621 542.724C544.485 552.375 536.438 559.621 526.511 561.731L350.208 599.206C340.281 601.315 329.983 597.969 323.193 590.427L202.587 456.481C195.796 448.94 193.545 438.348 196.681 428.696L252.379 257.276C255.515 247.625 263.562 240.379 273.489 238.268L449.792 200.794Z" stroke="url(#paint6_linear_17_100)" stroke-width="5"/>
<path opacity="0.53" d="M438.053 221.491C446.806 219.31 456.058 221.963 462.324 228.452L573.619 343.701C579.886 350.19 582.214 359.529 579.728 368.2L535.566 522.209C533.08 530.88 526.156 537.566 517.403 539.749L361.947 578.509C353.194 580.69 343.942 578.037 337.676 571.548L226.381 456.299C220.114 449.81 217.786 440.471 220.272 431.8L264.434 277.791C266.92 269.12 273.844 262.434 282.597 260.251L438.053 221.491Z" stroke="url(#paint7_linear_17_100)" stroke-width="5"/>
<path opacity="0.59" d="M427.825 242.738C435.412 240.563 443.584 242.6 449.262 248.084L550.105 345.467C555.783 350.949 558.104 359.045 556.195 366.704L522.28 502.728C520.371 510.386 514.52 516.445 506.933 518.621L372.175 557.262C364.588 559.437 356.416 557.399 350.738 551.916L249.895 454.533C244.217 449.051 241.896 440.955 243.805 433.296L277.72 297.272C279.629 289.614 285.48 283.555 293.067 281.379L427.825 242.738Z" stroke="url(#paint8_linear_17_100)" stroke-width="5"/>
<path opacity="0.66" d="M419.131 264.454C425.565 262.364 432.627 263.865 437.654 268.392L526.952 348.796C531.98 353.322 534.21 360.188 532.804 366.805L507.821 484.341C506.414 490.958 501.584 496.323 495.149 498.414L380.869 535.546C374.435 537.636 367.374 536.135 362.346 531.608L273.048 451.204C268.02 446.678 265.79 439.812 267.196 433.195L292.179 315.659C293.586 309.042 298.416 303.677 304.851 301.586L419.131 264.454Z" stroke="url(#paint9_linear_17_100)" stroke-width="5"/>
<path opacity="0.73" d="M411.991 286.557C417.289 284.629 423.213 285.674 427.532 289.298L504.239 353.664C508.558 357.287 510.616 362.94 509.637 368.492L492.249 467.106C491.27 472.658 487.403 477.266 482.105 479.195L388.009 513.443C382.711 515.371 376.787 514.326 372.468 510.702L295.761 446.336C291.442 442.713 289.384 437.06 290.363 431.508L307.751 332.894C308.73 327.342 312.597 322.734 317.895 320.805L411.991 286.557Z" stroke="url(#paint10_linear_17_100)" stroke-width="5"/>
<path opacity="0.8" d="M406.42 308.966C410.601 307.277 415.367 307.947 418.921 310.724L482.047 360.043C485.601 362.82 487.404 367.282 486.776 371.748L475.628 451.076C475 455.542 472.037 459.335 467.855 461.025L393.58 491.034C389.399 492.723 384.633 492.053 381.079 489.276L317.953 439.957C314.399 437.18 312.596 432.718 313.224 428.252L324.372 348.924C325 344.458 327.963 340.665 332.145 338.975L406.42 308.966Z" stroke="url(#paint11_linear_17_100)" stroke-width="5"/>
<path opacity="0.86" d="M402.429 331.598C405.519 330.223 409.109 330.6 411.846 332.588L460.452 367.903C463.189 369.891 464.657 373.189 464.303 376.553L458.023 436.304C457.669 439.668 455.548 442.589 452.458 443.965L397.571 468.402C394.481 469.777 390.891 469.4 388.154 467.411L339.548 432.097C336.811 430.109 335.343 426.811 335.697 423.447L341.977 363.696C342.331 360.332 344.452 357.411 347.542 356.035L402.429 331.598Z" stroke="url(#paint12_linear_17_100)" stroke-width="5"/>
<path opacity="0.93" d="M400.027 354.37C402.054 353.382 404.454 353.549 406.324 354.811L439.53 377.208C441.4 378.469 442.454 380.632 442.297 382.882L439.503 422.838C439.346 425.088 438 427.083 435.973 428.071L399.973 445.63C397.946 446.618 395.546 446.45 393.676 445.189L360.47 422.791C358.6 421.53 357.546 419.368 357.703 417.118L360.497 377.162C360.654 374.912 362 372.917 364.027 371.928L400.027 354.37Z" stroke="url(#paint13_linear_17_100)" stroke-width="5"/>
<path d="M399.217 377.199C400.213 376.669 401.415 376.711 402.371 377.309L419.355 387.922C420.311 388.519 420.876 389.581 420.837 390.708L420.138 410.723C420.099 411.85 419.461 412.87 418.465 413.4L400.783 422.802C399.787 423.331 398.585 423.289 397.629 422.691L380.645 412.079C379.688 411.481 379.124 410.419 379.163 409.292L379.862 389.277C379.901 388.15 380.539 387.13 381.534 386.601L399.217 377.199Z" stroke="url(#paint14_linear_17_100)" stroke-width="5"/>
</g>
<defs>
<linearGradient id="paint0_linear_17_100" x1="573.873" y1="98.8433" x2="226.127" y2="701.157" gradientUnits="userSpaceOnUse">
<stop stop-color="#3A96DD" stop-opacity="0.51"/>
<stop offset="1" stop-color="#3A96DD" stop-opacity="0.56"/>
</linearGradient>
<linearGradient id="paint1_linear_17_100" x1="552.373" y1="113.428" x2="247.627" y2="686.572" gradientUnits="userSpaceOnUse">
<stop stop-color="#3A96DD" stop-opacity="0.51"/>
<stop offset="1" stop-color="#3A96DD" stop-opacity="0.56"/>
</linearGradient>
<linearGradient id="paint2_linear_17_100" x1="532.116" y1="129.122" x2="267.884" y2="670.878" gradientUnits="userSpaceOnUse">
<stop stop-color="#3A96DD" stop-opacity="0.51"/>
<stop offset="1" stop-color="#3A96DD" stop-opacity="0.56"/>
</linearGradient>
<linearGradient id="paint3_linear_17_100" x1="513.153" y1="145.855" x2="286.847" y2="654.145" gradientUnits="userSpaceOnUse">
<stop stop-color="#3A96DD" stop-opacity="0.51"/>
<stop offset="1" stop-color="#3A96DD" stop-opacity="0.56"/>
</linearGradient>
<linearGradient id="paint4_linear_17_100" x1="495.53" y1="163.555" x2="304.47" y2="636.444" gradientUnits="userSpaceOnUse">
<stop stop-color="#3A96DD" stop-opacity="0.51"/>
<stop offset="1" stop-color="#3A96DD" stop-opacity="0.56"/>
</linearGradient>
<linearGradient id="paint5_linear_17_100" x1="479.291" y1="182.151" x2="320.709" y2="617.849" gradientUnits="userSpaceOnUse">
<stop stop-color="#3A96DD" stop-opacity="0.51"/>
<stop offset="1" stop-color="#3A96DD" stop-opacity="0.56"/>
</linearGradient>
<linearGradient id="paint6_linear_17_100" x1="464.476" y1="201.564" x2="335.524" y2="598.435" gradientUnits="userSpaceOnUse">
<stop stop-color="#3A96DD" stop-opacity="0.51"/>
<stop offset="1" stop-color="#3A96DD" stop-opacity="0.56"/>
</linearGradient>
<linearGradient id="paint7_linear_17_100" x1="451.121" y1="221.72" x2="348.879" y2="578.28" gradientUnits="userSpaceOnUse">
<stop stop-color="#3A96DD" stop-opacity="0.51"/>
<stop offset="1" stop-color="#3A96DD" stop-opacity="0.56"/>
</linearGradient>
<linearGradient id="paint8_linear_17_100" x1="439.259" y1="242.539" x2="360.741" y2="557.461" gradientUnits="userSpaceOnUse">
<stop stop-color="#3A96DD" stop-opacity="0.51"/>
<stop offset="1" stop-color="#3A96DD" stop-opacity="0.56"/>
</linearGradient>
<linearGradient id="paint9_linear_17_100" x1="428.92" y1="263.941" x2="371.08" y2="536.059" gradientUnits="userSpaceOnUse">
<stop stop-color="#3A96DD" stop-opacity="0.51"/>
<stop offset="1" stop-color="#3A96DD" stop-opacity="0.56"/>
</linearGradient>
<linearGradient id="paint10_linear_17_100" x1="420.128" y1="285.846" x2="379.872" y2="514.154" gradientUnits="userSpaceOnUse">
<stop stop-color="#3A96DD" stop-opacity="0.51"/>
<stop offset="1" stop-color="#3A96DD" stop-opacity="0.56"/>
</linearGradient>
<linearGradient id="paint11_linear_17_100" x1="412.906" y1="308.17" x2="387.094" y2="491.83" gradientUnits="userSpaceOnUse">
<stop stop-color="#3A96DD" stop-opacity="0.51"/>
<stop offset="1" stop-color="#3A96DD" stop-opacity="0.56"/>
</linearGradient>
<linearGradient id="paint12_linear_17_100" x1="407.27" y1="330.832" x2="392.73" y2="469.168" gradientUnits="userSpaceOnUse">
<stop stop-color="#3A96DD" stop-opacity="0.51"/>
<stop offset="1" stop-color="#3A96DD" stop-opacity="0.56"/>
</linearGradient>
<linearGradient id="paint13_linear_17_100" x1="403.234" y1="353.747" x2="396.766" y2="446.253" gradientUnits="userSpaceOnUse">
<stop stop-color="#3A96DD" stop-opacity="0.51"/>
<stop offset="1" stop-color="#3A96DD" stop-opacity="0.56"/>
</linearGradient>
<linearGradient id="paint14_linear_17_100" x1="400.809" y1="376.831" x2="399.191" y2="423.169" gradientUnits="userSpaceOnUse">
<stop stop-color="#3A96DD" stop-opacity="0.51"/>
<stop offset="1" stop-color="#3A96DD" stop-opacity="0.56"/>
</linearGradient>
<clipPath id="clip0_17_100">
<rect width="800" height="800" fill="white"/>
</clipPath>
</defs>
</svg>
