<svg width="30" height="30" viewBox="0 0 30 30" fill="none" xmlns="http://www.w3.org/2000/svg">
<path d="M25.8499 3.96433C23.1061 -0.0200443 17.7347 -1.17176 13.5985 1.33769L6.60096 5.78613C5.65521 6.37861 4.84472 7.16347 4.22215 8.08969C3.59958 9.01591 3.17887 10.0628 2.98737 11.1622C2.64752 13.0097 2.94205 14.9178 3.82315 16.5768C3.22115 17.4817 2.81658 18.5034 2.63581 19.5751C2.4379 20.6927 2.46427 21.8385 2.71338 22.9459C2.96249 24.0532 3.42936 25.0999 4.08682 26.0251C6.83534 30.0001 12.1922 31.1572 16.3376 28.6764L23.3405 24.2232C24.2827 23.6283 25.0897 22.8425 25.7096 21.9165C26.3294 20.9906 26.7483 19.945 26.9393 18.8471C27.2752 17.0054 26.979 15.1042 26.0989 13.4518C27.9593 10.5325 27.8614 6.77683 25.8499 3.96433ZM12.8998 26.4111C11.8007 26.6968 10.6404 26.6379 9.57594 26.2425C8.51143 25.8471 7.5941 25.1342 6.94807 24.2003C6.1369 23.0769 5.83948 21.6899 6.07385 20.3129L6.21096 19.6492L6.33753 19.239L6.7137 19.4879C7.5387 20.1132 8.46213 20.5618 9.44838 20.8649L9.70198 20.9528L9.67338 21.2028C9.64878 21.5497 9.7512 21.9397 9.95182 22.2374C10.362 22.828 11.0752 23.1116 11.7628 22.9257C11.9138 22.8772 12.0612 22.8278 12.1875 22.749L19.1611 18.3015C19.5127 18.0763 19.737 17.7395 19.8249 17.3392C19.9017 16.9236 19.8 16.4989 19.575 16.1626C19.1592 15.586 18.4517 15.3271 17.764 15.4991C17.6128 15.5521 17.4518 15.6116 17.3236 15.6894L14.6869 17.364C12.1922 18.8471 8.96956 18.1503 7.31346 15.7628C6.91463 15.2064 6.63137 14.5758 6.48041 13.9081C6.32945 13.2404 6.31386 12.5492 6.43456 11.8754C6.55551 11.2084 6.81531 10.5742 7.19711 10.0139C7.5789 9.45372 8.07417 8.97999 8.65081 8.62347L15.6099 4.17503C16.0493 3.90128 16.5225 3.7016 17.0353 3.54972C19.2865 2.96378 21.6586 3.84738 22.9871 5.75144C23.4494 6.40247 23.7545 7.15189 23.8783 7.94078C24.002 8.72966 23.9411 9.5365 23.7003 10.2978L23.573 10.7127L23.2123 10.4638C22.3795 9.85445 21.4504 9.38902 20.4638 9.08683L20.2139 9.01347L20.2388 8.76363C20.2634 8.3973 20.161 8.01199 19.9603 7.71363C19.5492 7.123 18.837 6.87386 18.1493 7.04964C17.9984 7.0991 17.851 7.14761 17.7246 7.22636L10.7372 11.7135C10.3857 11.9478 10.1607 12.2746 10.0873 12.6847C10.0142 13.0848 10.1121 13.5243 10.3371 13.8465C10.7374 14.4381 11.4645 14.687 12.139 14.5103C12.3 14.4618 12.4512 14.4132 12.5738 14.3345L15.2398 12.6343C15.6748 12.347 16.1628 12.1375 16.6617 11.9999C18.9277 11.4093 21.2906 12.2985 22.6135 14.2119C23.4246 15.3353 23.7368 16.7214 23.5116 18.0838C23.3962 18.7491 23.1417 19.3826 22.7648 19.9429C22.3879 20.5032 21.8971 20.9778 21.3244 21.3355L14.3508 25.7743C13.8973 26.0484 13.4098 26.2617 12.9007 26.4088L12.8998 26.4111Z" fill="#ECE2D0"/>
</svg>
