<svg width="30" height="30" viewBox="0 0 30 30" fill="none" xmlns="http://www.w3.org/2000/svg">
<g clip-path="url(#clip0_13_25)">
<path d="M15.0009 6.00049C11.0008 6.00049 8.5017 7.99971 7.50092 11.9998C9.00045 10.0003 10.751 9.25057 12.7504 9.75049C13.8921 10.035 14.7079 10.8628 15.6115 11.7802C17.0819 13.2724 18.784 15 22.5009 15C26.5008 15 29.0001 13.0006 30.0009 8.99955C28.5012 11.0002 26.7508 11.7499 24.7512 11.25C23.6097 10.9653 22.7948 10.1377 21.8901 9.22033C20.4206 7.72807 18.719 6.00049 15.0009 6.00049ZM7.50092 15C3.50107 15 1.0017 16.9995 0.000915527 21.0005C1.50045 18.9999 3.25076 18.2501 5.25045 18.75C6.39209 19.0348 7.20795 19.8624 8.11146 20.7797C9.58193 22.272 11.284 23.9996 15.0009 23.9996C19.0008 23.9996 21.5001 22.0003 22.5009 18.0003C21.0012 19.9997 19.2508 20.7495 17.2512 20.2496C16.1097 19.965 15.2948 19.1372 14.3901 18.2199C12.9206 16.7276 11.219 15 7.50092 15Z" fill="#ECE2D0"/>
</g>
<defs>
<clipPath id="clip0_13_25">
<rect width="30" height="30" fill="white"/>
</clipPath>
</defs>
</svg>
