<svg width="30" height="30" viewBox="0 0 30 30" fill="none" xmlns="http://www.w3.org/2000/svg">
<g clip-path="url(#clip0_13_32)">
<path d="M0.46875 14.979V29.6274H29.7656V0.330566H0.46875V14.979ZM24.0773 13.8071C24.779 13.97 25.4168 14.337 25.9102 14.8618C26.1818 15.1446 26.4179 15.4594 26.6133 15.7993C26.6133 15.8368 25.3477 16.6923 24.5766 17.1704C24.5484 17.1892 24.4359 17.0673 24.3117 16.8821C24.171 16.6392 23.9709 16.436 23.7304 16.2913C23.4898 16.1466 23.2165 16.0652 22.9359 16.0548C22.0477 15.9938 21.4758 16.4603 21.4805 17.2267C21.4731 17.4175 21.5168 17.6068 21.607 17.7751C21.8016 18.1806 22.1648 18.422 23.3039 18.9142C25.4016 19.8165 26.2992 20.4118 26.857 21.2579C27.4805 22.1954 27.6187 23.7095 27.1969 24.8298C26.7281 26.0485 25.5797 26.8759 23.9555 27.1501C23.2136 27.2351 22.4641 27.2272 21.7242 27.1267C20.595 26.9435 19.5534 26.4058 18.75 25.5915C18.4805 25.2938 17.9555 24.5181 17.9883 24.4618C18.0738 24.3983 18.1639 24.3411 18.2578 24.2907L19.3359 23.672L20.1773 23.1845L20.3531 23.4446C20.6498 23.869 21.0273 24.2306 21.4641 24.5087C22.4016 25.0009 23.6812 24.9329 24.3141 24.3634C24.5265 24.1547 24.6591 23.8781 24.6886 23.5817C24.7182 23.2854 24.6429 22.988 24.4758 22.7415C24.2414 22.4157 23.7727 22.1415 22.4625 21.5696C20.9508 20.9181 20.2992 20.5149 19.7039 19.8728C19.3323 19.449 19.0579 18.949 18.9 18.4079C18.7822 17.7897 18.7648 17.1566 18.8484 16.5329C19.1602 15.0728 20.2547 14.0532 21.8531 13.7509C22.5934 13.6593 23.3432 13.6798 24.0773 13.8118V13.8071ZM17.2008 15.0353V16.2353H13.3969V27.0704H10.6992V16.2329H6.88594V15.061C6.8757 14.6576 6.88665 14.2539 6.91875 13.8517C6.93281 13.8329 9.2625 13.8235 12.075 13.8282H17.1867L17.2008 15.0353Z" fill="#ECE2D0"/>
</g>
<defs>
<clipPath id="clip0_13_32">
<rect width="30" height="30" fill="white"/>
</clipPath>
</defs>
</svg>
